<?xml version="1.0" encoding="UTF-8"?>
<svg version="1.1" xmlns="http://www.w3.org/2000/svg" width="500" height="500">
<path d="M0 0 C0.33 3.96 0.66 7.92 1 12 C8.92 12.33 16.84 12.66 25 13 C28.33333333 21 31.66666667 29 35 37 C35.29769287 36.30849854 35.59538574 35.61699707 35.90209961 34.90454102 C37.24477486 31.78946102 38.59108667 28.67596602 39.9375 25.5625 C40.40607422 24.47388672 40.87464844 23.38527344 41.35742188 22.26367188 C41.80537109 21.22919922 42.25332031 20.19472656 42.71484375 19.12890625 C43.12855225 18.17056885 43.54226074 17.21223145 43.96850586 16.22485352 C45 14 45 14 46 13 C48.01964199 12.92755947 50.04167124 12.91622812 52.0625 12.9375 C53.16722656 12.94652344 54.27195312 12.95554688 55.41015625 12.96484375 C56.26480469 12.97644531 57.11945313 12.98804688 58 13 C56.13997352 19.62644275 53.9332973 25.94786732 51.19921875 32.26171875 C50.84036087 33.09661331 50.48150299 33.93150787 50.11177063 34.79170227 C49.35755063 36.53992568 48.60028969 38.28684012 47.84008789 40.0324707 C46.68811211 42.68608997 45.555746 45.34753988 44.42382812 48.00976562 C43.68347759 49.71926409 42.9419797 51.42826621 42.19921875 53.13671875 C41.86774338 53.9222966 41.53626801 54.70787445 41.19474792 55.51725769 C38.56364821 61.47720266 35.28559143 67.12981887 29.48828125 70.4296875 C26.63991158 71.08253204 24.10769823 71.19536622 21.1875 71.125 C20.21167969 71.10695313 19.23585938 71.08890625 18.23046875 71.0703125 C17.49441406 71.04710937 16.75835937 71.02390625 16 71 C16 67.7 16 64.4 16 61 C19.3 60.34 22.6 59.68 26 59 C27.57841431 53.30826163 26.18926543 49.77216738 24.03515625 44.5390625 C23.72299667 43.74849457 23.4108371 42.95792664 23.08921814 42.1434021 C22.09383222 39.63163185 21.07855759 37.12846972 20.0625 34.625 C19.3821333 32.91849851 18.70308181 31.21147202 18.02539062 29.50390625 C16.3654331 25.32970289 14.68759812 21.16310094 13 17 C12.67 18.98 12.34 20.96 12 23 C8.04 23 4.08 23 0 23 C0.33 29.93 0.66 36.86 1 44 C4.63 44 8.26 44 12 44 C12 47.3 12 50.6 12 54 C6.77016104 55.74327965 0.19204792 56.17345762 -5.05078125 54.24609375 C-8.08980224 52.32314002 -9.71361069 50.2941456 -11 47 C-11.22705078 44.34277344 -11.22705078 44.34277344 -11.1953125 41.359375 C-11.18886719 40.28945312 -11.18242187 39.21953125 -11.17578125 38.1171875 C-11.15902344 37.00601563 -11.14226562 35.89484375 -11.125 34.75 C-11.11597656 33.62335938 -11.10695313 32.49671875 -11.09765625 31.3359375 C-11.07410658 28.55707635 -11.0412168 25.7786461 -11 23 C-13.97 23 -16.94 23 -20 23 C-20 19.7 -20 16.4 -20 13 C-17.03 13 -14.06 13 -11 13 C-11 9.37 -11 5.74 -11 2 C-3.375 0 -3.375 0 0 0 Z " fill="#000101" transform="translate(392,212)"/>
<path d="M0 0 C1.98338434 1.90727252 3.41586445 3.72940571 5 6 C3.76600937 7.36877116 2.51219377 8.71969166 1.25 10.0625 C0.55390625 10.81660156 -0.1421875 11.57070312 -0.859375 12.34765625 C-3 14 -3 14 -5.078125 13.87109375 C-7.92978077 12.57857498 -10.39856462 10.73429025 -13 9 C-17.64558242 7.20171003 -22.52351675 7.50783892 -27.1875 9.0625 C-30.73998634 11.50976837 -32.6901497 13.93799234 -34 18 C-34.75441536 23.23471881 -34.79491797 28.20083494 -32.375 33 C-29.65774441 36.43232284 -28.17178894 37.68665904 -24 39 C-19.3253172 39.53274876 -15.37598428 39.57332678 -11 37.75 C-8.63714352 35.90534179 -8.63714352 35.90534179 -7 32 C-13.93 31.505 -13.93 31.505 -21 31 C-21.09765625 22.50390625 -21.09765625 22.50390625 -21 20 C-18.1868208 17.1868208 -9.8666272 18.40253713 -6.0625 18.25 C-4.09120117 18.14751953 -4.09120117 18.14751953 -2.08007812 18.04296875 C-0.2015918 17.96755859 -0.2015918 17.96755859 1.71484375 17.890625 C2.87105225 17.83938477 4.02726074 17.78814453 5.21850586 17.73535156 C6.59534546 17.86635254 6.59534546 17.86635254 8 18 C11.07151695 22.60727543 10.05221586 26.71815329 9 32 C6.19217609 40.36295828 1.31339216 46.02555954 -6.3515625 50.31640625 C-14.25605004 53.91733946 -21.98060519 54.34070475 -30.1875 51.4375 C-38.75285786 47.54909945 -44.2920877 41.60935861 -48 33 C-50.39618737 25.33527246 -49.53405959 17.51351959 -46.2578125 10.28515625 C-42.29919986 3.09326682 -36.61646363 -1.88988936 -28.91015625 -4.78515625 C-18.85311639 -7.53129191 -8.569853 -5.92212877 0 0 Z " fill="#D9E50A" transform="translate(97,215)"/>
<path d="M0 0 C4.55315922 -0.09958121 9.10567152 -0.17179985 13.65966797 -0.21972656 C15.20567887 -0.23972503 16.75161527 -0.26693331 18.29736328 -0.30175781 C34.29967584 -0.65300289 34.29967584 -0.65300289 41 4 C44.30585654 7.47114937 45.28551279 10.25712637 45.5625 14.9375 C45.375459 20.31289582 43.47470132 23.00409349 40 27 C40.78375 27.5775 41.5675 28.155 42.375 28.75 C45.3915998 31.33565697 46.72098553 33.21560511 47.3359375 37.1484375 C47.43206812 42.62788267 46.70194013 45.69774526 43 50 C37.29522734 55.86776616 29.79838433 56.11025874 22.03125 56.23046875 C19.52079558 56.22652149 17.01033812 56.21198482 14.5 56.1875 C13.21351563 56.18685547 11.92703125 56.18621094 10.6015625 56.18554688 C1.14054202 56.14054202 1.14054202 56.14054202 0 55 C-0.0935919 53.28134591 -0.11744611 51.55884256 -0.11352539 49.83764648 C-0.11344986 48.73658066 -0.11337433 47.63551483 -0.11329651 46.50108337 C-0.10813522 45.3031868 -0.10297394 44.10529022 -0.09765625 42.87109375 C-0.0962413 41.65172623 -0.09482635 40.4323587 -0.09336853 39.17604065 C-0.08774967 35.2631693 -0.07519396 31.35035419 -0.0625 27.4375 C-0.05748743 24.79231853 -0.0529241 22.14713617 -0.04882812 19.50195312 C-0.03777411 13.00128274 -0.02101764 6.50064539 0 0 Z M12 10 C12 13.96 12 17.92 12 22 C14.75105422 22.10812003 17.49785087 22.18734945 20.25 22.25 C21.41595703 22.30027344 21.41595703 22.30027344 22.60546875 22.3515625 C27.40645227 22.44070585 27.40645227 22.44070585 31.546875 20.14453125 C33.23957161 18.07818533 33.23957161 18.07818533 33 15.4375 C31.74506509 12.37859617 30.89596251 11.60476904 28 10 C25.16599714 9.78659617 22.56983831 9.71535009 19.75 9.8125 C18.63238281 9.83280273 18.63238281 9.83280273 17.4921875 9.85351562 C15.66114584 9.88872796 13.83047831 9.94253149 12 10 Z M12 32 C12 36.29 12 40.58 12 45 C14.89740622 45.13539281 17.78845621 45.23426829 20.6875 45.3125 C21.50412109 45.35439453 22.32074219 45.39628906 23.16210938 45.43945312 C27.61969611 45.52968767 29.42035094 45.44356394 33.078125 42.64453125 C35.24430464 40.19068631 35.24430464 40.19068631 35.0625 37.375 C33.7187218 34.37126049 32.90891443 33.57886647 30 32 C26.90796463 31.63406978 23.85796144 31.7178043 20.75 31.8125 C19.48929688 31.83280273 19.48929688 31.83280273 18.203125 31.85351562 C16.13514062 31.88876536 14.06748729 31.9425698 12 32 Z " fill="#000101" transform="translate(181,211)"/>
<path d="M0 0 C0.7940625 0.14695313 1.588125 0.29390625 2.40625 0.4453125 C2.73625 0.1153125 3.06625 -0.2146875 3.40625 -0.5546875 C5.07054051 -0.65292687 6.73906931 -0.68442381 8.40625 -0.6796875 C9.7675 -0.68355469 9.7675 -0.68355469 11.15625 -0.6875 C13.40625 -0.5546875 13.40625 -0.5546875 14.40625 0.4453125 C15.23486053 5.82444665 15.5867708 11.123734 15.64453125 16.56640625 C15.652603 17.31060318 15.66067474 18.05480011 15.66899109 18.82154846 C15.68271666 20.38369495 15.69348942 21.94586997 15.70141602 23.50805664 C15.7129596 25.08952769 15.73344908 26.67095906 15.76293945 28.25219727 C16.11324101 47.09998643 16.11324101 47.09998643 10.02905273 54.00927734 C4.06690976 59.47676167 -2.5500102 59.81203883 -10.24609375 59.71484375 C-14.96254279 59.33510631 -19.18492705 58.11728148 -23.59375 56.4453125 C-22.82594814 47.23169021 -22.82594814 47.23169021 -19.59375 44.4453125 C-16.40625 43.6953125 -16.40625 43.6953125 -13.59375 43.4453125 C-13.92375 44.4353125 -14.25375 45.4253125 -14.59375 46.4453125 C-6.876245 47.73404572 -6.876245 47.73404572 0.40625 45.4453125 C0.40625 44.1253125 0.40625 42.8053125 0.40625 41.4453125 C-1.07875 41.9403125 -1.07875 41.9403125 -2.59375 42.4453125 C-15.28304215 43.39746718 -15.28304215 43.39746718 -20.59375 39.4453125 C-26.27991923 33.75914327 -29.86510842 29.44375323 -30.03125 21.1953125 C-29.89536455 13.11465796 -27.34124216 9.25524767 -21.84375 3.6328125 C-14.28488735 -1.45488352 -8.89012449 -1.95313341 0 0 Z M-16.59375 15.4453125 C-17.95715029 18.6833882 -17.58317366 20.512296 -17.03125 24.0078125 C-15.21959965 28.34001987 -13.89081296 29.57023048 -9.59375 31.4453125 C-5.73509744 31.52961919 -2.06834593 31.18261046 1.40625 29.4453125 C2.65578205 26.08179228 2.50734961 22.74647647 2.46875 19.1953125 C2.45972656 18.11765625 2.45070313 17.04 2.44140625 15.9296875 C2.42980469 15.10984375 2.41820312 14.29 2.40625 13.4453125 C-5.26379216 8.95553172 -10.57875594 9.00067601 -16.59375 15.4453125 Z " fill="#D9E409" transform="translate(158.59375,224.5546875)"/>
<path d="M0 0 C1.67542976 0.28604898 3.34385343 0.61781233 5 1 C5.103125 1.639375 5.20625 2.27875 5.3125 2.9375 C5.6528125 3.9584375 5.6528125 3.9584375 6 5 C6.99 5.33 7.98 5.66 9 6 C8.814375 7.093125 8.62875 8.18625 8.4375 9.3125 C7.7421932 12.93624133 7.7421932 12.93624133 9 16 C9.33 12.7 9.66 9.4 10 6 C11.65 6 13.3 6 15 6 C15.33 8.31 15.66 10.62 16 13 C16.66 12.34 17.32 11.68 18 11 C20.3828125 10.8046875 20.3828125 10.8046875 23.125 10.875 C24.03507812 10.89304687 24.94515625 10.91109375 25.8828125 10.9296875 C26.58148438 10.95289063 27.28015625 10.97609375 28 11 C28.495 11.99 28.495 11.99 29 13 C29.556875 12.484375 30.11375 11.96875 30.6875 11.4375 C33 10 33 10 35.5625 10.3125 C36.366875 10.539375 37.17125 10.76625 38 11 C38.99 11 39.98 11 41 11 C44.66666667 11 48.33333333 11 52 11 C53.50912635 10.97733259 55.01823978 10.95379898 56.52734375 10.9296875 C58.33072533 10.91108224 60.13411097 10.89286797 61.9375 10.875 C62.84435547 10.85824219 63.75121094 10.84148437 64.68554688 10.82421875 C65.56146484 10.81777344 66.43738281 10.81132812 67.33984375 10.8046875 C68.13769287 10.79421387 68.93554199 10.78374023 69.75756836 10.77294922 C72.23954446 11.02425437 73.85439671 11.75966411 76 13 C76.66 12.34 77.32 11.68 78 11 C80.625 10.875 80.625 10.875 83 11 C83 9.35 83 7.7 83 6 C84.65 6.33 86.3 6.66 88 7 C88.02685095 9.47923801 88.04676547 11.9581884 88.0625 14.4375 C88.07087891 15.14455078 88.07925781 15.85160156 88.08789062 16.58007812 C88.09653588 18.38693559 88.05220011 20.19387603 88 22 C87 23 87 23 84.78515625 23.09765625 C83.43744141 23.08025391 83.43744141 23.08025391 82.0625 23.0625 C81.16660156 23.05347656 80.27070313 23.04445313 79.34765625 23.03515625 C78.57292969 23.02355469 77.79820312 23.01195312 77 23 C76.34 23 75.68 23 75 23 C73.68 23 72.36 23 71 23 C70.505 19.04 70.505 19.04 70 15 C69.34 15.33 68.68 15.66 68 16 C67.59270772 18.32156597 67.25561323 20.6568787 67 23 C64.9399629 23.25034126 62.87672534 23.47443346 60.8125 23.6875 C59.66394531 23.81511719 58.51539063 23.94273437 57.33203125 24.07421875 C53.57518743 23.99053759 51.91915928 23.3181559 49 21 C48.1875 18.3125 48.1875 18.3125 48 16 C47.34 16 46.68 16 46 16 C46 18.31 46 20.62 46 23 C43.66666667 23 41.33333333 23 39 23 C38.38125 23.02320313 37.7625 23.04640625 37.125 23.0703125 C36.42375 23.08835937 35.7225 23.10640625 35 23.125 C33.948125 23.15980469 33.948125 23.15980469 32.875 23.1953125 C31 23 31 23 29 21 C28.79375 21.94875 28.5875 22.8975 28.375 23.875 C27 27 27 27 24.125 28.4375 C21.21341309 28.96158564 19.71496807 29.04421849 17 28 C16.67 25.69 16.34 23.38 16 21 C15.67 21.66 15.34 22.32 15 23 C11.7 23 8.4 23 5 23 C4.34 21.68 3.68 20.36 3 19 C2.608125 19.66 2.21625 20.32 1.8125 21 C0 23 0 23 -2.6875 23.25 C-3.450625 23.1675 -4.21375 23.085 -5 23 C-3.31326082 18.50202887 -1.18326108 14.27113698 1 10 C-0.25272767 11.15576878 -0.25272767 11.15576878 -1.453125 13.72265625 C-2.04609375 14.82480469 -2.6390625 15.92695313 -3.25 17.0625 C-3.83265625 18.16722656 -4.4153125 19.27195312 -5.015625 20.41015625 C-7 23 -7 23 -9.734375 23.37109375 C-10.48203125 23.24863281 -11.2296875 23.12617188 -12 23 C-11.49126809 17.70070924 -8.69931888 13.69637804 -6 9.25 C-5.5359375 8.47011719 -5.071875 7.69023437 -4.59375 6.88671875 C-1.17911255 1.17911255 -1.17911255 1.17911255 0 0 Z M21 15 C20.67 15.99 20.34 16.98 20 18 C20.99 18 21.98 18 23 18 C23 17.01 23 16.02 23 15 C22.34 15 21.68 15 21 15 Z M34 15 C34 16.32 34 17.64 34 19 C34.99 18.67 35.98 18.34 37 18 C36.67 17.01 36.34 16.02 36 15 C35.34 15 34.68 15 34 15 Z M54 15 C54 16.32 54 17.64 54 19 C54.99 19 55.98 19 57 19 C57 17.68 57 16.36 57 15 C56.01 15 55.02 15 54 15 Z M80 15 C79.67 15.99 79.34 16.98 79 18 C80.32 18.33 81.64 18.66 83 19 C83 17.68 83 16.36 83 15 C82.01 15 81.02 15 80 15 Z " fill="#020301" transform="translate(331,284)"/>
<path d="M0 0 C5.6077912 3.12536134 9.4175942 7.95490346 11.3203125 14.109375 C12.66353536 21.25417745 11.55923114 26.93791946 7.6875 33.0625 C3.46296607 37.75753889 -0.98692565 40.69630359 -7.36328125 41.3984375 C-16.24860915 41.50484861 -21.65212314 40.56019345 -28.125 34.375 C-32.29401476 28.06192051 -34.13123248 22.12768212 -33 14.55078125 C-31.46592281 8.99846778 -28.69493543 4.84516148 -24.078125 1.390625 C-16.17471264 -3.08965335 -8.35841153 -3.59649791 0 0 Z M-18.3125 11.0625 C-20.75590191 13.99458229 -21.27909534 15.75072321 -21.6875 19.5625 C-21.16770942 24.41387879 -19.80435927 26.78376348 -16.125 29.9375 C-12.23357054 31.49407179 -9.26334232 31.4723772 -5.3125 30.0625 C-2.11372025 27.39685021 -0.67588595 25.89229295 0.12890625 21.83984375 C0.33351763 17.88622395 -0.00579668 15.59639097 -2 12.125 C-7.57394759 7.15364134 -12.05675526 7.28298755 -18.3125 11.0625 Z " fill="#010101" transform="translate(265.3125,225.9375)"/>
<path d="M0 0 C4.16380851 3.5575152 5.65075291 6.64939626 6.13989258 12.03295898 C6.21806735 16.19506525 6.17369471 20.335465 6.07421875 24.49609375 C6.05412852 25.9576579 6.03588219 27.41924861 6.01953125 28.88085938 C5.97572211 32.44066149 5.90683421 35.99945629 5.82421875 39.55859375 C2.08984027 40.43727104 -1.34352698 40.64771594 -5.17578125 40.55859375 C-5.19560059 39.82745361 -5.21541992 39.09631348 -5.23583984 38.34301758 C-5.33131039 35.01869106 -5.44090091 31.69497389 -5.55078125 28.37109375 C-5.58171875 27.22060547 -5.61265625 26.07011719 -5.64453125 24.88476562 C-5.68320312 23.77294922 -5.721875 22.66113281 -5.76171875 21.515625 C-5.8088501 19.9838562 -5.8088501 19.9838562 -5.85693359 18.42114258 C-6.191131 15.4207868 -6.79365961 13.23888724 -8.17578125 10.55859375 C-12.04643283 7.97815936 -13.73049759 8.66953702 -18.17578125 9.55859375 C-19.16578125 10.05359375 -19.16578125 10.05359375 -20.17578125 10.55859375 C-20.50578125 20.12859375 -20.83578125 29.69859375 -21.17578125 39.55859375 C-23.55544245 40.74842435 -25.0906386 40.69209341 -27.73828125 40.68359375 C-28.94677734 40.68746094 -28.94677734 40.68746094 -30.1796875 40.69140625 C-32.17578125 40.55859375 -32.17578125 40.55859375 -33.17578125 39.55859375 C-33.26449398 36.52881571 -33.29097475 33.52192353 -33.2734375 30.4921875 C-33.27202255 29.58356461 -33.2706076 28.67494171 -33.26914978 27.73878479 C-33.26353318 24.82452154 -33.2509779 21.91033394 -33.23828125 18.99609375 C-33.23326839 17.02539173 -33.22870511 15.05468851 -33.22460938 13.08398438 C-33.21355836 8.24215816 -33.19628263 3.4003888 -33.17578125 -1.44140625 C-28.17578125 -1.44140625 -23.17578125 -1.44140625 -18.17578125 -1.44140625 C-11.73082147 -3.58972618 -6.07448628 -2.86532372 0 0 Z " fill="#000101" transform="translate(362.17578125,226.44140625)"/>
<path d="M0 0 C3.96 0 7.92 0 12 0 C12.02578125 1.90265625 12.0515625 3.8053125 12.078125 5.765625 C12.13439902 8.26043983 12.1917465 10.75523061 12.25 13.25 C12.26417969 14.50425781 12.27835937 15.75851563 12.29296875 17.05078125 C12.32519531 18.25605469 12.35742188 19.46132812 12.390625 20.703125 C12.41157227 21.81333008 12.43251953 22.92353516 12.45410156 24.06738281 C13.11661527 27.62646809 14.1468112 28.83126539 17 31 C20.29278627 31.480198 22.19214713 31.42328774 25.14941406 29.8737793 C27.79235361 27.19771584 27.54215393 25.29599519 27.609375 21.58203125 C27.64160156 20.32841797 27.67382812 19.07480469 27.70703125 17.78320312 C27.72830078 15.81770508 27.72830078 15.81770508 27.75 13.8125 C27.77815981 12.47717464 27.80808729 11.1418853 27.83984375 9.80664062 C27.91065116 6.53769851 27.96329633 3.26947421 28 0 C31.63 0 35.26 0 39 0 C39.16740321 5.65982297 39.32798446 11.31978218 39.48217773 16.97998047 C39.53562804 18.90646608 39.59095971 20.83290042 39.64819336 22.75927734 C39.73001986 25.5243016 39.80513291 28.28943814 39.87890625 31.0546875 C39.90594131 31.9193161 39.93297638 32.7839447 39.96083069 33.67477417 C40.11387171 39.77225659 40.11387171 39.77225659 39 42 C37.37536158 42.05395478 35.75021459 42.09277195 34.125 42.125 C32.76761719 42.15980469 32.76761719 42.15980469 31.3828125 42.1953125 C29 42 29 42 27 40 C26.46117187 40.32226562 25.92234375 40.64453125 25.3671875 40.9765625 C20.81406631 42.94507364 15.85621704 42.52728362 11 42 C6.52129344 39.84062362 3.81801812 37.07047061 1 33 C-0.15927528 29.52217417 -0.11313066 26.81196743 -0.09765625 23.14453125 C-0.0962413 22.48289474 -0.09482635 21.82125824 -0.09336853 21.13957214 C-0.08777996 19.03050172 -0.07522965 16.92153823 -0.0625 14.8125 C-0.05748352 13.38086091 -0.05292087 11.94922015 -0.04882812 10.51757812 C-0.0378143 7.01168412 -0.02055755 3.5058525 0 0 Z " fill="#000101" transform="translate(282,225)"/>
<path d="M0 0 C2.64 0 5.28 0 8 0 C8.495 1.485 8.495 1.485 9 3 C9.66 2.01 10.32 1.02 11 0 C12.32 0.33 13.64 0.66 15 1 C15.495 2.98 15.495 2.98 16 5 C16.33 3.68 16.66 2.36 17 1 C17.99 1.66 18.98 2.32 20 3 C22.38677076 3.29452584 24.78626094 3.4928217 27.1875 3.625 C28.45980469 3.69976562 29.73210937 3.77453125 31.04296875 3.8515625 C32.01878906 3.90054687 32.99460937 3.94953125 34 4 C34.95821359 7.37896371 35.01444422 9.58777852 34 13 C33.34 13.33 32.68 13.66 32 14 C30.98308736 15.99145391 29.98357352 17.99187074 29 20 C28.34 20.66 27.68 21.32 27 22 C24.375 21.625 24.375 21.625 22 21 C22 20.01 22 19.02 22 18 C21.21753906 17.93941406 20.43507813 17.87882812 19.62890625 17.81640625 C18.11103516 17.69072266 18.11103516 17.69072266 16.5625 17.5625 C15.04849609 17.44068359 15.04849609 17.44068359 13.50390625 17.31640625 C11 17 11 17 10 16 C9.85884839 13.32941149 9.95752893 10.67567762 10 8 C9.34 8 8.68 8 8 8 C8.0825 8.7425 8.165 9.485 8.25 10.25 C8 13 8 13 6.5625 15.3125 C2.81052291 17.78331418 -0.62688605 17.4696478 -5 17 C-5.7321875 16.80792969 -6.464375 16.61585938 -7.21875 16.41796875 C-7.8065625 16.28003906 -8.394375 16.14210938 -9 16 C-9.33 16.33 -9.66 16.66 -10 17 C-14.1259171 17.28131253 -17.40582978 17.15650213 -21 15 C-21.8125 12.375 -21.8125 12.375 -22 10 C-22 11.98 -22 13.96 -22 16 C-23.32 16.33 -24.64 16.66 -26 17 C-27.3271261 13.0186217 -27.06915913 9.14954773 -27 5 C-24.03549787 4.01183262 -22.08189674 3.92295258 -19 4 C-18.01 4 -17.02 4 -16 4 C-15.15566406 4.01160156 -14.31132812 4.02320313 -13.44140625 4.03515625 C-12.49136719 4.04417969 -11.54132813 4.05320312 -10.5625 4.0625 C-9.61503906 4.07410156 -8.66757812 4.08570313 -7.69140625 4.09765625 C-5.23824237 4.0086445 -3.27921367 3.90857037 -1 3 C-0.67 2.01 -0.34 1.02 0 0 Z M-3 9 C-2 12 -2 12 -2 12 Z " fill="#DFE116" transform="translate(275,290)"/>
<path d="M0 0 C2 2 2 2 2.24723816 3.8662262 C2.24510063 5.00087563 2.24510063 5.00087563 2.24291992 6.15844727 C2.24599655 7.01596085 2.24907318 7.87347443 2.25224304 8.75697327 C2.24505753 9.68408615 2.23787201 10.61119904 2.23046875 11.56640625 C2.22978142 12.99024879 2.22978142 12.99024879 2.2290802 14.44285583 C2.22605638 16.45109303 2.21816624 18.45932784 2.20581055 20.4675293 C2.18755439 23.55330649 2.18530082 26.63878383 2.18554688 29.72460938 C2.18063183 31.67187761 2.17480357 33.6191438 2.16796875 35.56640625 C2.16685593 36.49554337 2.1657431 37.42468048 2.16459656 38.38197327 C2.15821671 39.23633469 2.15183685 40.09069611 2.14526367 40.97094727 C2.14145187 41.72658463 2.13764008 42.48222198 2.13371277 43.26075745 C2 45 2 45 1 46 C-1.01964199 46.07244053 -3.04167124 46.08377188 -5.0625 46.0625 C-6.71958984 46.04896484 -6.71958984 46.04896484 -8.41015625 46.03515625 C-9.26480469 46.02355469 -10.11945313 46.01195312 -11 46 C-12.12332385 41.5039158 -12.14480197 37.0919101 -12.1328125 32.48828125 C-12.13376923 31.67884567 -12.13472595 30.8694101 -12.13571167 30.03544617 C-12.13638992 28.33181683 -12.13456047 26.62818487 -12.13037109 24.92456055 C-12.12499687 22.31097669 -12.13033878 19.69756306 -12.13671875 17.08398438 C-12.13605831 15.42708295 -12.13477787 13.77018164 -12.1328125 12.11328125 C-12.13483673 11.32995926 -12.13686096 10.54663727 -12.13894653 9.73957825 C-12.11497447 4.22994895 -12.11497447 4.22994895 -11 2 C-8.75 1.62109375 -8.75 1.62109375 -6 1.4375 C-2.69240381 1.46519462 -2.69240381 1.46519462 0 0 Z " fill="#D9E406" transform="translate(123,221)"/>
<path d="M0 0 C1.19625 0.020625 2.3925 0.04125 3.625 0.0625 C4.615 0.0625 5.605 0.0625 6.625 0.0625 C9.625 0.0625 12.625 0.0625 15.625 0.0625 C15.58375 0.97 15.5425 1.8775 15.5 2.8125 C15.62439717 6.04682638 15.80999342 7.45066126 17.625 10.0625 C19.81041552 10.7618514 19.81041552 10.7618514 22.25 10.8125 C23.69375 10.895 25.1375 10.9775 26.625 11.0625 C26.625 8.0925 26.625 5.1225 26.625 2.0625 C26.955 2.0625 27.285 2.0625 27.625 2.0625 C27.625 5.3625 27.625 8.6625 27.625 12.0625 C23.38376989 13.29382487 19.80552271 12.84376821 15.515625 12.21875 C14.89171875 12.1671875 14.2678125 12.115625 13.625 12.0625 C13.295 12.3925 12.965 12.7225 12.625 13.0625 C8.4990829 13.34381253 5.21917022 13.21900213 1.625 11.0625 C0.8125 8.4375 0.8125 8.4375 0.625 6.0625 C0.625 8.0425 0.625 10.0225 0.625 12.0625 C-0.695 12.3925 -2.015 12.7225 -3.375 13.0625 C-4.70606125 9.06931626 -4.51147721 5.22505487 -4.375 1.0625 C-3.375 0.0625 -3.375 0.0625 0 0 Z " fill="#DCE20F" transform="translate(252.375,293.9375)"/>
<path d="M0 0 C2.35694954 0.09031574 4.71153582 0.24688128 7.0625 0.4375 C8.35285156 0.53933594 9.64320313 0.64117187 10.97265625 0.74609375 C12.47119141 0.87177734 12.47119141 0.87177734 14 1 C14.95821359 4.37896371 15.01444422 6.58777852 14 10 C13.01 10.495 13.01 10.495 12 11 C10.98308736 12.99145391 9.98357352 14.99187074 9 17 C8.34 17.66 7.68 18.32 7 19 C4.375 18.625 4.375 18.625 2 18 C2 17.01 2 16.02 2 15 C1.21753906 14.93941406 0.43507813 14.87882812 -0.37109375 14.81640625 C-1.38300781 14.73261719 -2.39492188 14.64882813 -3.4375 14.5625 C-4.95150391 14.44068359 -4.95150391 14.44068359 -6.49609375 14.31640625 C-9 14 -9 14 -10 13 C-10.04092937 10.66702567 -10.04241723 8.33294775 -10 6 C-9.67 6 -9.34 6 -9 6 C-9 7.98 -9 9.96 -9 12 C-7.68 12 -6.36 12 -5 12 C-5 11.34 -5 10.68 -5 10 C-3.35 9.67 -1.7 9.34 0 9 C-0.185625 7.700625 -0.37125 6.40125 -0.5625 5.0625 C-0.87890625 2.84765625 -0.87890625 2.84765625 -1 1 C-0.67 0.67 -0.34 0.34 0 0 Z " fill="#D5D921" transform="translate(295,293)"/>
<path d="M0 0 C0.66 0 1.32 0 2 0 C2.91058531 3.07322544 3.08886184 5.80097361 3 9 C1.68 9 0.36 9 -1 9 C-0.97679687 10.12019531 -0.95359375 11.24039063 -0.9296875 12.39453125 C-0.91092763 13.86718084 -0.89272766 15.33983763 -0.875 16.8125 C-0.85824219 17.55048828 -0.84148437 18.28847656 -0.82421875 19.04882812 C-0.78925372 22.91246426 -0.80602445 24.70903668 -3 28 C-5.875 27.75 -5.875 27.75 -9 27 C-11.03147098 24.02319104 -11.24697521 21.54688536 -11.1875 18 C-11.18105469 17.154375 -11.17460937 16.30875 -11.16796875 15.4375 C-11.01154076 13.16747523 -10.63089814 11.18038396 -10 9 C-9.34 9 -8.68 9 -8 9 C-8 8.01 -8 7.02 -8 6 C-6.02 6 -4.04 6 -2 6 C-1.855625 5.195625 -1.71125 4.39125 -1.5625 3.5625 C-1 1 -1 1 0 0 Z " fill="#D8E505" transform="translate(141,228)"/>
<path d="M0 0 C2.6266712 1.63034764 2.97024761 2.90224213 3.875 5.875 C4.02743228 9.68580708 3.52366824 11.15069714 1 14 C-2.22380166 15.02887287 -4.10543271 15.31430743 -7.3125 14.1875 C-9 13 -9 13 -10 11 C-10.35872645 7.12575435 -10.56710729 4.85066094 -8.375 1.5625 C-5.31881548 -0.44814771 -3.59350675 -0.53520313 0 0 Z " fill="#DBE511" transform="translate(121,207)"/>
<path d="M0 0 C1.90942738 0.3725712 3.82531489 0.71661078 5.75 1 C6.08 0.67 6.41 0.34 6.75 0 C8.41429051 -0.09823937 10.08281931 -0.12973631 11.75 -0.125 C13.11125 -0.12886719 13.11125 -0.12886719 14.5 -0.1328125 C16.75 0 16.75 0 17.75 1 C18.58483683 6.39455844 18.91994384 11.69724219 18.953125 17.15625 C18.95882507 17.9028186 18.96452515 18.64938721 18.97039795 19.4185791 C18.97977264 20.98493056 18.9863516 22.55130108 18.99023438 24.11767578 C18.99997609 26.49416648 19.03108447 28.8698038 19.0625 31.24609375 C19.06902881 32.77864078 19.07427976 34.31119389 19.078125 35.84375 C19.0904718 36.54294556 19.1028186 37.24214111 19.11553955 37.96252441 C19.09215574 43.21650589 17.80019247 47.16344035 15.75 52 C14.66493364 48.74480093 14.89272475 48.1333067 15.75 45 C15.83312165 43.56538424 15.86785375 42.12744495 15.86352539 40.69042969 C15.86344986 39.84986023 15.86337433 39.00929077 15.86329651 38.14324951 C15.85813522 37.24519592 15.85297394 36.34714233 15.84765625 35.421875 C15.8462413 34.4953009 15.84482635 33.56872681 15.84336853 32.61407471 C15.83777824 29.65935008 15.8252275 26.70470167 15.8125 23.75 C15.80748375 21.74479276 15.80292106 19.73958433 15.79882812 17.734375 C15.78781199 12.82288737 15.770554 7.9114566 15.75 3 C13.275 2.505 13.275 2.505 10.75 2 C10.75 3.65 10.75 5.3 10.75 7 C9.76 6.01 8.77 5.02 7.75 4 C6.1 4.66 4.45 5.32 2.75 6 C2.42 4.68 2.09 3.36 1.75 2 C-6.79824466 1.84126912 -6.79824466 1.84126912 -15.25 3 C-10.26602108 -1.24561167 -6.27045474 -1.23555758 0 0 Z " fill="#EAEA29" transform="translate(155.25,224)"/>
<path d="M0 0 C0.33 0.99 0.66 1.98 1 3 C0.36191406 3.20496094 -0.27617188 3.40992188 -0.93359375 3.62109375 C-1.75988281 3.89050781 -2.58617188 4.15992188 -3.4375 4.4375 C-4.67306641 4.83775391 -4.67306641 4.83775391 -5.93359375 5.24609375 C-7.96219588 5.82155494 -7.96219588 5.82155494 -9 7 C-9.16017166 9.80976518 -9.25950534 12.59773596 -9.31640625 15.41015625 C-9.33718735 16.25219101 -9.35796844 17.09422577 -9.37937927 17.96177673 C-9.44496812 20.66193179 -9.50380276 23.36218717 -9.5625 26.0625 C-9.60567637 27.88868241 -9.64929036 29.71485454 -9.69335938 31.54101562 C-9.80065894 36.02723992 -9.90189966 40.5135655 -10 45 C-6.7 45 -3.4 45 0 45 C0 31.8 0 18.6 0 5 C0.33 5 0.66 5 1 5 C1.16721596 10.67813837 1.32781538 16.35640975 1.48217773 22.03491211 C1.5356778 23.96823209 1.59101308 25.90150216 1.64819336 27.8347168 C1.72988175 30.60714959 1.80505352 33.37969258 1.87890625 36.15234375 C1.90594131 37.02213364 1.93297638 37.89192352 1.96083069 38.78807068 C2.01278164 40.85810315 2.01188571 42.92934984 2 45 C1 46 1 46 -1.72265625 46.09765625 C-2.82480469 46.08605469 -3.92695312 46.07445312 -5.0625 46.0625 C-6.71958984 46.04896484 -6.71958984 46.04896484 -8.41015625 46.03515625 C-9.26480469 46.02355469 -10.11945313 46.01195312 -11 46 C-12.12332385 41.5039158 -12.14480197 37.0919101 -12.1328125 32.48828125 C-12.13376923 31.67884567 -12.13472595 30.8694101 -12.13571167 30.03544617 C-12.13638992 28.33181683 -12.13456047 26.62818487 -12.13037109 24.92456055 C-12.12499687 22.31097669 -12.13033878 19.69756306 -12.13671875 17.08398438 C-12.13605831 15.42708295 -12.13477787 13.77018164 -12.1328125 12.11328125 C-12.13483673 11.32995926 -12.13686096 10.54663727 -12.13894653 9.73957825 C-12.11497447 4.22994895 -12.11497447 4.22994895 -11 2 C-8.75 1.62109375 -8.75 1.62109375 -6 1.4375 C-2.69240381 1.46519462 -2.69240381 1.46519462 0 0 Z " fill="#E1E72A" transform="translate(123,221)"/>
<path d="M0 0 C0.99 0.33 1.98 0.66 3 1 C3 2.32 3 3.64 3 5 C3.66 5 4.32 5 5 5 C5 3.68 5 2.36 5 1 C6.32 1 7.64 1 9 1 C9.33 1.99 9.66 2.98 10 4 C10.66 3.01 11.32 2.02 12 1 C12.99 1 13.98 1 15 1 C14.34 4.63 13.68 8.26 13 12 C11.68 12.33 10.36 12.66 9 13 C8.34 11.68 7.68 10.36 7 9 C6.34 10.32 5.68 11.64 5 13 C3.68 12.67 2.36 12.34 1 12 C0.63896464 10.18885568 0.28634496 8.37603177 -0.0625 6.5625 C-0.25972656 5.55316406 -0.45695313 4.54382813 -0.66015625 3.50390625 C-0.77230469 2.67761719 -0.88445312 1.85132813 -1 1 C-0.67 0.67 -0.34 0.34 0 0 Z " fill="#030401" transform="translate(221,294)"/>
<path d="M0 0 C2 2 2 2 2.1953125 4.1640625 C2.17210937 4.97617187 2.14890625 5.78828125 2.125 6.625 C2.10695312 7.44226563 2.08890625 8.25953125 2.0703125 9.1015625 C2.03550781 10.04128906 2.03550781 10.04128906 2 11 C-4.25925926 12.44444444 -4.25925926 12.44444444 -7.5 10.5 C-9 8 -9 8 -8.875 4.3125 C-8.58625 3.219375 -8.2975 2.12625 -8 1 C-5.23749964 -0.38125018 -3.05268901 -0.19079306 0 0 Z " fill="#020400" transform="translate(245,295)"/>
<path d="M0 0 C8 0 8 0 10 1.1875 C11.40047854 3.72586735 11.56981532 5.15092341 11 8 C8.6167054 9.81883009 7.04181663 11 4 11 C3.34 12.65 2.68 14.3 2 16 C1.34 16 0.68 16 0 16 C0 10.72 0 5.44 0 0 Z M4 3 C4 4.32 4 5.64 4 7 C4.99 6.67 5.98 6.34 7 6 C7 5.34 7 4.68 7 4 C6.01 3.67 5.02 3.34 4 3 Z " fill="#020301" transform="translate(197,291)"/>
<path d="M0 0 C-0.33 0.66 -0.66 1.32 -1 2 C4.83475015 2.85330338 9.44860651 3.48351814 15 1 C14.67 1.99 14.34 2.98 14 4 C11.04925064 5.14604997 8.13805158 5.13456723 5 5.125 C3.7315625 5.12886719 3.7315625 5.12886719 2.4375 5.1328125 C0.14918399 5.00812861 -1.79020373 4.56189264 -4 4 C-6.18703385 4.37907282 -6.18703385 4.37907282 -8 5 C-8 6.65 -8 8.3 -8 10 C-2.28489672 12.1771822 2.99223674 12.4030193 9.05078125 12.65625 C10.51064453 12.82640625 10.51064453 12.82640625 12 13 C12.33 13.66 12.66 14.32 13 15 C4.74447081 15.34937193 -2.2370239 14.94397288 -10 12 C-9.25083612 3.01003344 -9.25083612 3.01003344 -6 0 C-3.37169607 -1.03539246 -2.55664546 -1.27832273 0 0 Z " fill="#DEE232" transform="translate(145,269)"/>
<path d="M0 0 C2.05078125 0.03255208 4.1015625 0.06510417 6.15234375 0.09765625 C7.87451518 2.7315655 8.1568969 4.02177042 7.96484375 7.22265625 C7.15234375 10.09765625 7.15234375 10.09765625 4.15234375 12.09765625 C1.08984375 11.91015625 1.08984375 11.91015625 -1.84765625 11.09765625 C-3.84765625 8.09765625 -3.84765625 8.09765625 -3.53515625 4.47265625 C-2.65261925 0.14020186 -2.65261925 0.14020186 0 0 Z M1.15234375 3.09765625 C0.82234375 4.41765625 0.49234375 5.73765625 0.15234375 7.09765625 C1.47234375 7.09765625 2.79234375 7.09765625 4.15234375 7.09765625 C3.82234375 5.77765625 3.49234375 4.45765625 3.15234375 3.09765625 C2.49234375 3.09765625 1.83234375 3.09765625 1.15234375 3.09765625 Z " fill="#020300" transform="translate(211.84765625,294.90234375)"/>
<path d="M0 0 C-2 2 -2 2 -4.61376953 2.22705078 C-5.69255371 2.21657715 -6.77133789 2.20610352 -7.8828125 2.1953125 C-9.04941406 2.18886719 -10.21601562 2.18242187 -11.41796875 2.17578125 C-12.64128906 2.15902344 -13.86460938 2.14226562 -15.125 2.125 C-16.35605469 2.11597656 -17.58710937 2.10695312 -18.85546875 2.09765625 C-21.90383815 2.07402548 -24.95182382 2.04108054 -28 2 C-28.33 4.64 -28.66 7.28 -29 10 C-24.71 10 -20.42 10 -16 10 C-16.33 10.66 -16.66 11.32 -17 12 C-23.93 11.505 -23.93 11.505 -31 11 C-31.09765625 2.50390625 -31.09765625 2.50390625 -31 0 C-28.32616201 -2.67383799 -20.79906232 -1.54365126 -17.1875 -1.6875 C-15.38442383 -1.77741211 -15.38442383 -1.77741211 -13.54492188 -1.86914062 C-12.38927734 -1.91619141 -11.23363281 -1.96324219 -10.04296875 -2.01171875 C-8.45005005 -2.08072388 -8.45005005 -2.08072388 -6.82495117 -2.15112305 C-3.97209629 -1.99850727 -2.40697299 -1.48257945 0 0 Z " fill="#E1E733" transform="translate(107,235)"/>
<path d="M0 0 C0.66 0 1.32 0 2 0 C1.95875 0.9075 1.9175 1.815 1.875 2.75 C1.99939717 5.98432638 2.18499342 7.38816126 4 10 C6.18541552 10.6993514 6.18541552 10.6993514 8.625 10.75 C10.06875 10.8325 11.5125 10.915 13 11 C13 8.03 13 5.06 13 2 C13.33 2 13.66 2 14 2 C14 5.3 14 8.6 14 12 C9.75876989 13.23132487 6.18052271 12.78126821 1.890625 12.15625 C1.26671875 12.1046875 0.6428125 12.053125 0 12 C-0.33 12.33 -0.66 12.66 -1 13 C-2.99958364 13.04080783 -5.00045254 13.04254356 -7 13 C-5.68 12.67 -4.36 12.34 -3 12 C-3 11.34 -3 10.68 -3 10 C-3.99 10 -4.98 10 -6 10 C-5.67 9.34 -5.34 8.68 -5 8 C-2.4375 7.375 -2.4375 7.375 0 7 C-0.185625 6.401875 -0.37125 5.80375 -0.5625 5.1875 C-1 3 -1 3 0 0 Z " fill="#D5D82E" transform="translate(266,294)"/>
<path d="M0 0 C2 1 2 1 3.1875 3.25 C4.08937081 6.30248582 3.86361585 7.97734454 3 11 C1.68 11 0.36 11 -1 11 C-1.33 11.66 -1.66 12.32 -2 13 C-3.32 13 -4.64 13 -6 13 C-6.1875 9.625 -6.1875 9.625 -6 6 C-3 4 -3 4 1 4 C0.67 2.68 0.34 1.36 0 0 Z " fill="#E0E30E" transform="translate(292,292)"/>
<path d="M0 0 C0.66 0 1.32 0 2 0 C2 0.66 2 1.32 2 2 C5.465 1.505 5.465 1.505 9 1 C9 2.65 9 4.3 9 6 C8.34 6 7.68 6 7 6 C6.67 7.32 6.34 8.64 6 10 C5.34 10 4.68 10 4 10 C3.67 10.66 3.34 11.32 3 12 C2.67 10.35 2.34 8.7 2 7 C1.34 7 0.68 7 0 7 C-0.33 7.66 -0.66 8.32 -1 9 C-1.09765625 2.84765625 -1.09765625 2.84765625 -1 1 C-0.67 0.67 -0.34 0.34 0 0 Z " fill="#DCDF0B" transform="translate(298,296)"/>
<path d="M0 0 C1.134375 0.020625 2.26875 0.04125 3.4375 0.0625 C3.7675 0.7225 4.0975 1.3825 4.4375 2.0625 C3.4475 2.866875 3.4475 2.866875 2.4375 3.6875 C0.12725201 5.96208592 0.12725201 5.96208592 0.1875 9.3125 C0.27 10.22 0.3525 11.1275 0.4375 12.0625 C-0.8825 12.3925 -2.2025 12.7225 -3.5625 13.0625 C-4.89356125 9.06931626 -4.69897721 5.22505487 -4.5625 1.0625 C-3.5625 0.0625 -3.5625 0.0625 0 0 Z " fill="#D1D61C" transform="translate(252.5625,293.9375)"/>
<path d="M0 0 C4.4800401 0.95093489 4.4800401 0.95093489 8.875 0 C11.2156065 0.27769908 13.55124308 0.60539977 15.875 1 C15.875 1.33 15.875 1.66 15.875 2 C14.225 2 12.575 2 10.875 2 C10.875 3.65 10.875 5.3 10.875 7 C9.885 6.01 8.895 5.02 7.875 4 C6.225 4.66 4.575 5.32 2.875 6 C2.545 4.68 2.215 3.36 1.875 2 C-6.67324466 1.84126912 -6.67324466 1.84126912 -15.125 3 C-10.17861084 -1.21359076 -6.22174311 -1.24746729 0 0 Z " fill="#DFE622" transform="translate(155.125,224)"/>
<path d="M0 0 C4.29 0.33 8.58 0.66 13 1 C13 1.66 13 2.32 13 3 C12.33613281 2.95359375 11.67226562 2.9071875 10.98828125 2.859375 C5.22697053 2.61781276 5.22697053 2.61781276 -0.0625 4.6875 C-2.28682812 7.34234324 -2.83993718 8.55864946 -3 12 C-2.73128549 14.34165499 -2.40961596 16.67884289 -2 19 C-2.66 19 -3.32 19 -4 19 C-4.36644578 17.44033408 -4.71760862 15.87707349 -5.0625 14.3125 C-5.25972656 13.44238281 -5.45695313 12.57226562 -5.66015625 11.67578125 C-6.02032279 8.83998724 -5.70909969 6.75210018 -5 4 C-3.68 4 -2.36 4 -1 4 C-0.67 2.68 -0.34 1.36 0 0 Z " fill="#D9E32A" transform="translate(145,233)"/>
<path d="M0 0 C2.31 0.33 4.62 0.66 7 1 C7 1.66 7 2.32 7 3 C13.93 3 20.86 3 28 3 C24.77995763 6.22004237 21.29872487 6.18997701 16.875 6.3125 C11.04692527 6.27333283 6.08277301 4.86559631 1 2 C0.67 1.34 0.34 0.68 0 0 Z " fill="#DCE52B" transform="translate(61,262)"/>
<path d="M0 0 C2 3 2 3 3 5 C3.99 5.33 4.98 5.66 6 6 C6.33 6.99 6.66 7.98 7 9 C6.38253906 8.7834375 5.76507813 8.566875 5.12890625 8.34375 C-0.83640307 6.38255242 -5.72880367 5.69655502 -12 6 C-10.52436775 3.0487355 -8.49920648 2.93076085 -5.4375 1.875 C-4.42558594 1.52179688 -3.41367188 1.16859375 -2.37109375 0.8046875 C-1.58863281 0.53914062 -0.80617188 0.27359375 0 0 Z " fill="#D8E51A" transform="translate(83,217)"/>
<path d="M0 0 C-2.26374611 2.26374611 -3.31012369 2.48351426 -6.375 3.125 C-7.14585938 3.29257813 -7.91671875 3.46015625 -8.7109375 3.6328125 C-11 4 -11 4 -15 4 C-15.33 4.99 -15.66 5.98 -16 7 C-18.06640625 7.94921875 -18.06640625 7.94921875 -20.5625 8.6875 C-21.80193359 9.06455078 -21.80193359 9.06455078 -23.06640625 9.44921875 C-23.70449219 9.63097656 -24.34257813 9.81273437 -25 10 C-17.80259385 2.3913135 -10.49899229 -0.53840986 0 0 Z " fill="#D7E22C" transform="translate(81,209)"/>
<path d="M0 0 C0.99 0 1.98 0 3 0 C2.84144531 0.55042969 2.68289062 1.10085937 2.51953125 1.66796875 C1.25503543 7.3439387 0.91432681 13.7248725 3.625 19 C6.18324333 22.23146526 8.18725565 23.52689423 12 25 C10.375 25.75 10.375 25.75 8 26 C4.04762673 23.86571844 1.64135864 22.19148125 0 18 C-0.22705078 15.89355469 -0.22705078 15.89355469 -0.1953125 13.671875 C-0.18886719 12.87265625 -0.18242188 12.0734375 -0.17578125 11.25 C-0.15902344 10.425 -0.14226563 9.6 -0.125 8.75 C-0.11597656 7.90953125 -0.10695312 7.0690625 -0.09765625 6.203125 C-0.07415817 4.13529396 -0.03828908 2.06761005 0 0 Z " fill="#DCE733" transform="translate(61,229)"/>
<path d="M0 0 C1.125 3.75 1.125 3.75 0 6 C-0.22858114 8.0374763 -0.41024278 10.08040303 -0.5625 12.125 C-0.64628906 13.22070312 -0.73007812 14.31640625 -0.81640625 15.4453125 C-0.87699219 16.28835937 -0.93757813 17.13140625 -1 18 C-0.34 18 0.32 18 1 18 C0.67 20.31 0.34 22.62 0 25 C-3.27002554 21.72997446 -3.17309968 18.23585219 -3.25 13.75 C-3.22184113 8.50541032 -2.15300445 4.75455148 0 0 Z " fill="#DDE42F" transform="translate(51,225)"/>
<path d="M0 0 C0.66 0.66 1.32 1.32 2 2 C1.8668165 5.66254638 1.72325007 8.10984607 -0.625 11 C-4.07663304 12.45331917 -6.42809484 11.92604949 -10 11 C-12.29013653 7.5647952 -12.17842973 6.014669 -12 2 C-10.58622659 4.63904371 -9.62759865 7.07120629 -9 10 C-7.02 10 -5.04 10 -3 10 C-3 9.34 -3 8.68 -3 8 C-2.01 8 -1.02 8 0 8 C0 5.36 0 2.72 0 0 Z " fill="#DEE233" transform="translate(123,210)"/>
<path d="M0 0 C-0.33 0.66 -0.66 1.32 -1 2 C4.83475015 2.85330338 9.44860651 3.48351814 15 1 C14.67 1.99 14.34 2.98 14 4 C11.06113094 5.13487578 8.1257204 5.16367591 5 5.1875 C4.154375 5.20167969 3.30875 5.21585937 2.4375 5.23046875 C-0.15408616 4.98543096 -1.77024992 4.30584901 -4 3 C-4 2.34 -4 1.68 -4 1 C-4.66 0.67 -5.32 0.34 -6 0 C-2.25 -1.125 -2.25 -1.125 0 0 Z " fill="#EAEB2D" transform="translate(145,269)"/>
<path d="M0 0 C4.875 0.875 4.875 0.875 6 2 C6.07179964 3.51928038 6.08392007 5.04167482 6.0625 6.5625 C6.05347656 7.38878906 6.04445312 8.21507812 6.03515625 9.06640625 C6.02355469 9.70449219 6.01195312 10.34257812 6 11 C5.34 11 4.68 11 4 11 C3.67 10.01 3.34 9.02 3 8 C1.35 7.67 -0.3 7.34 -2 7 C-1.34 6.01 -0.68 5.02 0 4 C0.66 4 1.32 4 2 4 C2 3.34 2 2.68 2 2 C1.34 1.34 0.68 0.68 0 0 Z " fill="#1B1C0A" transform="translate(241,295)"/>
<path d="M0 0 C0.515625 0.268125 1.03125 0.53625 1.5625 0.8125 C7.9876029 4.03108362 7.9876029 4.03108362 15 5 C15 5.66 15 6.32 15 7 C16.98 7 18.96 7 21 7 C21 7.33 21 7.66 21 8 C9.05285837 8.573973 9.05285837 8.573973 4 5 C1.625 2.3125 1.625 2.3125 0 0 Z " fill="#DBE434" transform="translate(134,259)"/>
<path d="M0 0 C-2.62637999 3.69638666 -4.52740559 5.8818514 -9 7 C-11.15625 6.5390625 -11.15625 6.5390625 -13 6 C-11.78294994 4.98528829 -10.55073116 3.9887539 -9.3125 3 C-8.62800781 2.443125 -7.94351563 1.88625 -7.23828125 1.3125 C-4.61216944 -0.22741897 -2.99396644 -0.25168194 0 0 Z " fill="#D8E422" transform="translate(170,276)"/>
<path d="M0 0 C0.33 0.99 0.66 1.98 1 3 C0.06027344 3.30744141 0.06027344 3.30744141 -0.8984375 3.62109375 C-1.71570313 3.89050781 -2.53296875 4.15992188 -3.375 4.4375 C-4.18710938 4.70433594 -4.99921875 4.97117188 -5.8359375 5.24609375 C-8.01031799 5.95179729 -8.01031799 5.95179729 -10 7 C-10.66 6.67 -11.32 6.34 -12 6 C-11.67 4.68 -11.34 3.36 -11 2 C-10.28972656 1.93941406 -9.57945313 1.87882813 -8.84765625 1.81640625 C-7.46900391 1.69072266 -7.46900391 1.69072266 -6.0625 1.5625 C-5.14597656 1.48128906 -4.22945313 1.40007812 -3.28515625 1.31640625 C-1.03840268 1.23955024 -1.03840268 1.23955024 0 0 Z " fill="#E6E939" transform="translate(123,221)"/>
<path d="M0 0 C0.66 0.33 1.32 0.66 2 1 C1.67 2.98 1.34 4.96 1 7 C-2 8 -2 8 -5 7 C-5 7.99 -5 8.98 -5 10 C-5.66 10 -6.32 10 -7 10 C-5.6062718 5.56541027 -3.39417765 3.12621626 0 0 Z " fill="#D8E128" transform="translate(138,227)"/>
<path d="M0 0 C1.2065625 0.0309375 1.2065625 0.0309375 2.4375 0.0625 C1.81875 0.35125 1.2 0.64 0.5625 0.9375 C-1.69575765 1.99970042 -1.69575765 1.99970042 -3.5625 4.0625 C-3.23923447 7.65929066 -3.23923447 7.65929066 -2.5625 11.0625 C-4.22916667 11.0625 -5.89583333 11.0625 -7.5625 11.0625 C-7.5625 9.0825 -7.5625 7.1025 -7.5625 5.0625 C-6.9025 5.0625 -6.2425 5.0625 -5.5625 5.0625 C-5.0984375 4.1034375 -5.0984375 4.1034375 -4.625 3.125 C-3.05351796 0.07447605 -3.05351796 0.07447605 0 0 Z " fill="#DDDF2F" transform="translate(261.5625,293.9375)"/>
<path d="M0 0 C1.66611905 -0.042721 3.33382885 -0.04063832 5 0 C5.33 0.33 5.66 0.66 6 1 C5.91062197 2.52519276 5.75462854 4.04681929 5.5625 5.5625 C5.46066406 6.38878906 5.35882813 7.21507812 5.25390625 8.06640625 C5.12822266 9.02353516 5.12822266 9.02353516 5 10 C4.731875 9.360625 4.46375 8.72125 4.1875 8.0625 C3.11332248 5.66868314 3.11332248 5.66868314 0 5 C0.66 4.34 1.32 3.68 2 3 C1.34 2.67 0.68 2.34 0 2 C0 1.34 0 0.68 0 0 Z " fill="#DBE423" transform="translate(156,260)"/>
<path d="M0 0 C0.66 0.66 1.32 1.32 2 2 C2.66 2 3.32 2 4 2 C4 1.34 4 0.68 4 0 C4.99 0.33 5.98 0.66 7 1 C5.9375 3 5.9375 3 4 5 C0.3125 5.25 0.3125 5.25 -3 5 C-1.125 1.125 -1.125 1.125 0 0 Z " fill="#DDE518" transform="translate(55,220)"/>
<path d="M0 0 C0.33 0.99 0.66 1.98 1 3 C0.34 3 -0.32 3 -1 3 C-1.33 3.99 -1.66 4.98 -2 6 C-2 5.34 -2 4.68 -2 4 C-3.98 4.99 -3.98 4.99 -6 6 C-6.33 4.68 -6.66 3.36 -7 2 C-4.69 1.34 -2.38 0.68 0 0 Z " fill="#DFE819" transform="translate(124,223)"/>
<path d="M0 0 C0.99 0.33 1.98 0.66 3 1 C2.67 2.65 2.34 4.3 2 6 C1.01 6 0.02 6 -1 6 C-1.33 4.35 -1.66 2.7 -2 1 C-1.34 0.67 -0.68 0.34 0 0 Z " fill="#DADD04" transform="translate(293,297)"/>
<path d="M0 0 C-2.39763185 2.39763185 -3.33273498 2.34280586 -6.625 2.625 C-7.44226563 2.69976562 -8.25953125 2.77453125 -9.1015625 2.8515625 C-9.72804688 2.90054688 -10.35453125 2.94953125 -11 3 C-11 2.34 -11 1.68 -11 1 C-7.26562152 0.12132271 -3.83225427 -0.08912219 0 0 Z " fill="#E0E931" transform="translate(81,209)"/>
<path d="M0 0 C2 3 2 3 2 5 C-0.31 5.66 -2.62 6.32 -5 7 C-5 5.68 -5 4.36 -5 3 C-2.525 3.495 -2.525 3.495 0 4 C0 2.68 0 1.36 0 0 Z " fill="#D7D51C" transform="translate(291,291)"/>
<path d="M0 0 C2.31 0.33 4.62 0.66 7 1 C7 1.66 7 2.32 7 3 C7.99 3 8.98 3 10 3 C10 3.66 10 4.32 10 5 C6.05140217 4.4359146 3.29120954 3.2568294 0 1 C0 0.67 0 0.34 0 0 Z " fill="#DEE53C" transform="translate(61,262)"/>
<path d="M0 0 C0.33 0 0.66 0 1 0 C1 1.65 1 3.3 1 5 C-0.98 5.66 -2.96 6.32 -5 7 C-4.19152271 5.83054208 -3.37810888 4.66449539 -2.5625 3.5 C-2.11003906 2.8503125 -1.65757813 2.200625 -1.19140625 1.53125 C-0.79824219 1.0259375 -0.40507813 0.520625 0 0 Z " fill="#E1E632" transform="translate(92,246)"/>
<path d="M0 0 C0.99 0 1.98 0 3 0 C2.34 4.29 1.68 8.58 1 13 C0.67 13 0.34 13 0 13 C0 8.71 0 4.42 0 0 Z " fill="#D2D934" transform="translate(61,229)"/>
<path d="M0 0 C0 0.33 0 0.66 0 1 C-3.31114834 2.12880057 -6.58978257 3.21302675 -10 4 C-10 3.01 -10 2.02 -10 1 C-6.52674819 -0.1577506 -3.63932552 -0.06866652 0 0 Z " fill="#D8E519" transform="translate(86,210)"/>
<path d="M0 0 C1.65 0 3.3 0 5 0 C5 1.32 5 2.64 5 4 C3.68 4 2.36 4 1 4 C0.67 2.68 0.34 1.36 0 0 Z " fill="#090E01" transform="translate(240,303)"/>
<path d="M0 0 C2.9375 0.8125 2.9375 0.8125 6 2 C6.33 2.99 6.66 3.98 7 5 C4.03 4.01 1.06 3.02 -2 2 C-1.34 1.34 -0.68 0.68 0 0 Z " fill="#D5DB2E" transform="translate(83,221)"/>
<path d="M0 0 C2 1 2 1 2 1 Z " fill="#000000" transform="translate(201,296)"/>
</svg>
